<?xml version="1.0" encoding="utf-8"?>
<?xml-stylesheet type="text/xsl" href="rss1.xsl"?>
<rss version="2.0" xmlns:atom="http://www.w3.org/2005/Atom" xmlns:content="http://purl.org/rss/1.0/modules/content/" xmlns:dc="http://purl.org/dc/elements/1.1/" xmlns:media="http://search.yahoo.com/mrss/">
<channel>
 <title>Getty</title>
 <link>http://www.gettyimg.com/</link>
 <atom:link href="http://www.gettyimg.com/" rel="self" type="application/rss+xml" />

 
                <item>
                <title><![CDATA[【Cinema Center】MOVIE - Five Nights at Freddy's [Castellano 1080p Playdede]]]></title>
                <link><![CDATA[https://sharemania.us/threads/five-nights-at-freddys-castellano-1080p-playdede.237114/]]></link>
                <description><![CDATA[<article>
<blockquote class="messageText SelectQuoteContainer ugc baseHtml">
<div style="text-align: center"><img src="https://es.web.img3.acsta.net/pictures/23/09/20/15/05/0470801.jpg" class="bbCodeImage LbImage" alt="[​IMG]" data-url="https://es.web.img3.acsta.net/pictures/23/09/20/15/05/0470801.jpg" style=""><br>
<br>
<div class="bbCodeBlock bbCodeVfcHH HiddenContent">
<div class="attribution type">Hidden Content:</div>
<blockquote>You must reply before you can see the hidden data contained here.</blockquote>
</div></div>
<div class="messageTextEndMarker">&nbsp;</div>
</blockquote>
</article>]]></description>
                <author><![CDATA[aove]]></author>
                </item>

                
                <item>
                <title><![CDATA[【HD Live Performances】HDTV - Dua Lipa - Medley - 66TH ANNUAL GRAMMY AWARDS 2024 1080i [CHOX]]]></title>
                <link><![CDATA[https://sharemania.us/threads/dua-lipa-medley-66th-annual-grammy-awards-2024-1080i-chox.237113/]]></link>
                <description><![CDATA[<article>
<blockquote class="messageText SelectQuoteContainer ugc baseHtml">
<img src="https://i.imgur.com/DIf59rC.jpg" class="bbCodeImage LbImage" alt="[​IMG]" data-url="https://i.imgur.com/DIf59rC.jpg" style=""><br>
<br>
<div class="bbCodeBlock bbCodeCode">
<div class="type">Code:</div>
<pre>General
ID                             : 1 (0x1)
Complete name                  : C:\Users\Dua Lipa - Medley - 66TH ANNUAL GRAMMY AWARDS 2024[KHOU-TV] [CHOXUWU] [CHOX].ts
Format                         : MPEG-TS
File size                      : 447 MiB
Duration                       : 4 min 46 s
Overall bit rate mode          : Variable
Overall bit rate               : 13.1 Mb/s
Frame rate                     : 29.970 FPS
Movie name                     : THE GRAMMYS
Law rating                     : TV-PG

Video
ID                             : 256 (0x100)
Menu ID                        : 1 (0x1)
Format                         : MPEG Video
Format version                 : Version 2
Format profile                 : Main@High
Format settings                : CustomMatrix / BVOP
Format settings, BVOP          : Yes
Format settings, Matrix        : Custom
Format settings, GOP           : Variable
Format settings, picture struc : Frame
Codec ID                       : 2
Duration                       : 4 min 46 s
Bit rate mode                  : Variable
Bit rate                       : 11.9 Mb/s
Maximum bit rate               : 15.6 Mb/s
Width                          : 1 920 pixels
Height                         : 1 080 pixels
Display aspect ratio           : 16:9
Active Format Description      : Full frame 16:9 image
Frame rate                     : 29.970 (30000/1001) FPS
Color space                    : YUV
Chroma subsampling             : 4:2:0
Bit depth                      : 8 bits
Scan type                      : Interlaced
Scan order                     : Top Field First
Compression mode               : Lossy
Bits/(Pixel*Frame)             : 0.191
Time code of first frame       : 08:01:17;23
Time code source               : Group of pictures header
GOP, Open/Closed               : Open
Stream size                    : 405 MiB (91%)

Audio #1
ID                             : 257 (0x101)
Menu ID                        : 1 (0x1)
Format                         : AC-3
Format/Info                    : Audio Coding 3
Commercial name                : Dolby Digital
Codec ID                       : 129
Duration                       : 4 min 46 s
Bit rate mode                  : Constant
Bit rate                       : 384 kb/s
Channel(s)                     : 6 channels
Channel layout                 : L R C LFE Ls Rs
Sampling rate                  : 48.0 kHz
Frame rate                     : 31.250 FPS (1536 SPF)
Compression mode               : Lossy
Delay relative to video        : 38 ms
Stream size                    : 13.1 MiB (3%)
Language                       : English
Service kind                   : Complete Main

Audio #2
ID                             : 258 (0x102)
Menu ID                        : 1 (0x1)
Format                         : AC-3
Format/Info                    : Audio Coding 3
Commercial name                : Dolby Digital
Codec ID                       : 129
Duration                       : 4 min 46 s
Bit rate mode                  : Constant
Bit rate                       : 192 kb/s
Channel(s)                     : 2 channels
Channel layout                 : L R
Sampling rate                  : 48.0 kHz
Frame rate                     : 31.250 FPS (1536 SPF)
Compression mode               : Lossy
Delay relative to video        : 38 ms
Stream size                    : 6.55 MiB (1%)
Language                       : English
Service kind                   : Complete Main

Text #1
ID                             : 256 (0x100)-CC1
Menu ID                        : 1 (0x1)
Format                         : EIA-608
Muxing mode                    : A/53 / DTVCC Transport
Muxing mode, more info         : Muxed in Video #1
Duration                       : 4 min 46 s
Duration of the visible conten : 4 min 34 s
Start time (commands)          : 6 s 611 ms
Start time                     : 7 s 612 ms
End time                       : 4 min 42 s
Bit rate mode                  : Constant
Stream size                    : 0.00 Byte (0%)
Type of the first event        : RollUp

Text #2
ID                             : 256 (0x100)-CC3
Menu ID                        : 1 (0x1)
Format                         : EIA-608
Muxing mode                    : A/53 / DTVCC Transport
Muxing mode, more info         : Muxed in Video #1
Duration                       : 4 min 46 s
Start time (commands)          : 1 s 305 ms
Bit rate mode                  : Constant
Stream size                    : 0.00 Byte (0%)

Text #3
ID                             : 256 (0x100)-1
Menu ID                        : 1 (0x1)
Format                         : EIA-708
Muxing mode                    : A/53 / DTVCC Transport
Muxing mode, more info         : Muxed in Video #1
Duration                       : 4 min 46 s
Bit rate mode                  : Constant
Stream size                    : 0.00 Byte (0%)

Text #4
ID                             : 256 (0x100)-2
Menu ID                        : 1 (0x1)
Format                         : EIA-708
Muxing mode                    : A/53 / DTVCC Transport
Muxing mode, more info         : Muxed in Video #1
Duration                       : 4 min 46 s
Bit rate mode                  : Constant
Stream size                    : 0.00 Byte (0%)

Text #5
ID                             : 256 (0x100)-3
Menu ID                        : 1 (0x1)
Format                         : EIA-708
Muxing mode                    : A/53 / DTVCC Transport
Muxing mode, more info         : Muxed in Video #1
Duration                       : 4 min 46 s
Bit rate mode                  : Constant
Stream size                    : 0.00 Byte (0%)

Text #6
ID                             : 256 (0x100)-4
Menu ID                        : 1 (0x1)
Format                         : EIA-708
Muxing mode                    : A/53 / DTVCC Transport
Muxing mode, more info         : Muxed in Video #1
Duration                       : 4 min 46 s
Bit rate mode                  : Constant
Stream size                    : 0.00 Byte (0%)

Text #7
ID                             : 256 (0x100)-5
Menu ID                        : 1 (0x1)
Format                         : EIA-708
Muxing mode                    : A/53 / DTVCC Transport
Muxing mode, more info         : Muxed in Video #1
Duration                       : 4 min 46 s
Bit rate mode                  : Constant
Stream size                    : 0.00 Byte (0%)

Text #8
ID                             : 256 (0x100)-6
Menu ID                        : 1 (0x1)
Format                         : EIA-708
Muxing mode                    : A/53 / DTVCC Transport
Muxing mode, more info         : Muxed in Video #1
Duration                       : 4 min 46 s
Bit rate mode                  : Constant
Stream size                    : 0.00 Byte (0%)

Menu
ID                             : 4096 (0x1000)
Menu ID                        : 1 (0x1)
Format                         : MPEG Video / AC-3 / AC-3
Duration                       : 4 min 46 s
List                           : 256 (0x100) (MPEG Video) / 257 (0x101) (AC-3, English) / 258 (0x102) (AC-3, English)
Title                          : THE GRAMMYS
Language                       :  / English / English
Service name                   : Service01
Service provider               : FFmpeg
Service type                   : digital television
Law rating                     : TV-PG

</pre>
</div><br>
Thanks to <a href="https://sharemania.us/members/170100/" class="username" data-user="170100, @Chox">@Chox</a>.<br>
<br>
<div class="bbCodeBlock bbCodeVfcHH HiddenContent">
<div class="attribution type">Hidden Content:</div>
<blockquote>You must reply before you can see the hidden data contained here.</blockquote>
</div>
<div class="messageTextEndMarker">&nbsp;</div>
</blockquote>
</article>]]></description>
                <author><![CDATA[harmonizer54]]></author>
                </item>

                </channel></rss>